<svg width="259" height="51" viewBox="0 0 259 51" fill="none" xmlns="http://www.w3.org/2000/svg">
<path d="M60.5 45.58L41.15 25.38L60.5 5.19V45.58ZM46 25.38L57 36.89V13.89L46 25.38Z" fill="white"/>
<path d="M22.95 25.3L22.96 25.31L40.78 7.48999H25.37L7.53 7.52999V25.37L7.5 42.73L22.95 25.3Z" fill="#22B4DE"/>
<path d="M27.88 25.37L49.21 4H25.37H4V25.37V46.77H49.21L27.85 25.4L27.88 25.37ZM7.53 7.53H25.37H40.78L23 25.31L7.5 42.73V25.37L7.53 7.53Z" fill="white"/>
<path d="M82.06 4.60999V27.12H83.41C83.8054 27.1338 84.1996 27.0692 84.57 26.93C84.9157 26.7436 85.2108 26.4759 85.43 26.15L92.89 16.94C93.1578 16.5636 93.4977 16.244 93.89 16C94.3487 15.771 94.8576 15.661 95.37 15.68H102L92.68 26.82C92.0953 27.6194 91.3619 28.2984 90.52 28.82C90.9259 29.1037 91.2925 29.4399 91.61 29.82C91.9414 30.2203 92.2518 30.6375 92.54 31.07L102.54 45.64H96C95.4954 45.6547 94.9938 45.5591 94.53 45.36C94.0961 45.1452 93.7448 44.7939 93.53 44.36L85.87 33C85.6736 32.6362 85.3791 32.3348 85.02 32.13C84.5999 31.967 84.1499 31.8954 83.7 31.92H82.06V45.69H74.84V4.60999H82.06Z" fill="white"/>
<path d="M108.33 19.86C111.713 16.7275 116.18 15.0315 120.79 15.13C122.398 15.0987 123.997 15.3912 125.49 15.99C126.823 16.5209 128.022 17.3405 129 18.39C129.982 19.4422 130.726 20.694 131.18 22.06C131.694 23.566 131.948 25.1487 131.93 26.74V45.74H128.65C128.106 45.7708 127.562 45.6642 127.07 45.43C126.635 45.14 126.325 44.6976 126.2 44.19L125.55 42C124.847 42.644 124.105 43.2451 123.33 43.8C122.626 44.309 121.872 44.7446 121.08 45.1C120.278 45.4578 119.44 45.7293 118.58 45.91C117.612 46.1009 116.627 46.1947 115.64 46.19C114.45 46.1987 113.266 46.0233 112.13 45.67C111.108 45.3572 110.161 44.8363 109.35 44.14C108.558 43.4409 107.939 42.5682 107.54 41.59C107.089 40.4689 106.867 39.2684 106.89 38.06C106.893 37.2877 107.021 36.521 107.27 35.79C107.548 35.0012 107.972 34.2718 108.52 33.64C109.167 32.8927 109.918 32.2427 110.75 31.71C111.804 31.0407 112.94 30.5096 114.13 30.13C115.654 29.6284 117.215 29.2505 118.8 29C120.814 28.6992 122.844 28.5289 124.88 28.49V26.74C125.01 25.1456 124.551 23.5589 123.59 22.28C123.117 21.7797 122.539 21.3903 121.897 21.1396C121.256 20.8889 120.567 20.7832 119.88 20.83C118.894 20.8043 117.911 20.9429 116.97 21.24C116.276 21.4828 115.606 21.7908 114.97 22.16L113.37 23.08C112.885 23.3531 112.337 23.4944 111.78 23.49C111.319 23.5053 110.865 23.3682 110.49 23.1C110.154 22.843 109.866 22.5281 109.64 22.17L108.33 19.86ZM124.88 32.86C123.117 32.9257 121.36 33.106 119.62 33.4C118.438 33.5842 117.285 33.9203 116.19 34.4C115.464 34.7104 114.83 35.203 114.35 35.83C113.908 36.5315 113.723 37.3646 113.827 38.1871C113.931 39.0096 114.317 39.7705 114.92 40.34C115.789 40.9146 116.819 41.1982 117.86 41.15C119.188 41.1865 120.506 40.9125 121.71 40.35C122.901 39.7283 123.974 38.9024 124.88 37.91V32.86Z" fill="white"/>
<path d="M145.88 19.37C146.478 18.7647 147.116 18.2001 147.79 17.68C148.459 17.1742 149.175 16.7355 149.93 16.37C150.7 15.9991 151.508 15.714 152.34 15.52C153.262 15.3099 154.205 15.2059 155.15 15.21C156.646 15.1821 158.131 15.4682 159.51 16.05C160.736 16.57 161.822 17.3717 162.68 18.39C163.56 19.4512 164.216 20.679 164.61 22C165.064 23.4939 165.287 25.0486 165.27 26.61V45.71H158.05V26.59C158.145 25.0659 157.699 23.5572 156.79 22.33C156.306 21.8072 155.71 21.4006 155.047 21.1408C154.384 20.8811 153.67 20.7748 152.96 20.83C151.738 20.8216 150.533 21.1135 149.45 21.68C148.299 22.2787 147.253 23.0587 146.35 23.99V45.69H139.12V15.69H143.54C143.951 15.6598 144.36 15.7742 144.696 16.0134C145.032 16.2525 145.274 16.6015 145.38 17L145.88 19.37Z" fill="white"/>
<path d="M199.46 15.68L187.55 45.68H181L169.1 15.68H175.1C175.582 15.6642 176.056 15.7969 176.46 16.06C176.808 16.2987 177.059 16.6531 177.17 17.06L182.96 33.06C183.28 34 183.55 34.92 183.78 35.81C184.01 36.7 184.22 37.61 184.4 38.5C184.59 37.61 184.81 36.71 185.04 35.81C185.27 34.91 185.56 34 185.89 33.06L191.8 17.06C191.931 16.6578 192.187 16.3077 192.53 16.06C192.896 15.8036 193.333 15.6705 193.78 15.68H199.46Z" fill="white"/>
<path d="M203.41 19.86C206.793 16.7275 211.261 15.0315 215.87 15.13C217.478 15.0987 219.077 15.3912 220.57 15.99C221.903 16.5209 223.102 17.3405 224.08 18.39C225.062 19.4422 225.806 20.694 226.26 22.06C226.774 23.566 227.028 25.1487 227.01 26.74V45.74H223.73C223.186 45.7708 222.642 45.6642 222.15 45.43C221.715 45.14 221.405 44.6976 221.28 44.19L220.63 42C219.927 42.644 219.185 43.2451 218.41 43.8C216.993 44.8302 215.374 45.5493 213.66 45.91C212.692 46.1009 211.707 46.1947 210.72 46.19C209.53 46.1987 208.346 46.0233 207.21 45.67C206.188 45.3572 205.241 44.8363 204.43 44.14C203.638 43.4409 203.019 42.5682 202.62 41.59C202.171 40.4481 201.96 39.2264 202 38C202.003 37.2277 202.131 36.461 202.38 35.73C202.658 34.9412 203.082 34.2118 203.63 33.58C204.277 32.8327 205.028 32.1827 205.86 31.65C206.914 30.9807 208.05 30.4496 209.24 30.07C210.765 29.5786 212.326 29.2107 213.91 28.97C215.924 28.6692 217.954 28.4989 219.99 28.46V26.74C220.12 25.1456 219.661 23.5589 218.7 22.28C218.227 21.7816 217.651 21.3934 217.012 21.1428C216.372 20.8922 215.685 20.7854 215 20.83C214.014 20.8043 213.031 20.9429 212.09 21.24C211.396 21.4828 210.726 21.7908 210.09 22.16L208.49 23.08C208.005 23.3531 207.457 23.4944 206.9 23.49C206.439 23.5053 205.985 23.3682 205.61 23.1C205.274 22.843 204.986 22.5281 204.76 22.17L203.41 19.86ZM219.96 32.86C218.197 32.9257 216.44 33.106 214.7 33.4C213.518 33.5842 212.365 33.9203 211.27 34.4C210.544 34.7104 209.91 35.203 209.43 35.83C208.988 36.5315 208.803 37.3646 208.907 38.1871C209.011 39.0096 209.397 39.7705 210 40.34C210.869 40.9146 211.899 41.1982 212.94 41.15C214.268 41.1853 215.586 40.9115 216.79 40.35C217.993 39.7412 219.08 38.9255 220 37.94L219.96 32.86Z" fill="white"/>
<path d="M252.1 21.53C251.949 21.7934 251.741 22.0191 251.49 22.19C251.239 22.3263 250.955 22.392 250.67 22.38C250.277 22.3678 249.891 22.2688 249.54 22.09C249.14 21.89 248.68 21.67 248.15 21.43C247.569 21.1623 246.967 20.9416 246.35 20.77C245.574 20.5646 244.773 20.467 243.97 20.48C242.786 20.4129 241.611 20.7285 240.62 21.38C240.239 21.6455 239.93 22.0006 239.719 22.4139C239.508 22.8272 239.402 23.286 239.41 23.75C239.402 24.0499 239.453 24.3485 239.561 24.6283C239.669 24.9082 239.832 25.1637 240.04 25.38C240.519 25.8609 241.081 26.2506 241.7 26.53C242.463 26.8867 243.252 27.1842 244.06 27.42C244.94 27.69 245.83 27.97 246.73 28.29C247.63 28.61 248.53 28.95 249.41 29.35C250.265 29.7364 251.057 30.2488 251.76 30.87C252.516 31.5269 253.115 32.3449 253.513 33.2639C253.911 34.1828 254.098 35.1793 254.06 36.18C254.076 37.5516 253.814 38.9122 253.29 40.18C252.774 41.395 251.988 42.4759 250.99 43.34C249.888 44.2777 248.61 44.985 247.23 45.42C245.562 45.9468 243.819 46.2001 242.07 46.17C241.064 46.1661 240.06 46.0724 239.07 45.89C238.107 45.7057 237.161 45.4449 236.24 45.11C235.366 44.7969 234.523 44.4053 233.72 43.94C233.004 43.5244 232.334 43.035 231.72 42.48L233.38 39.73C233.576 39.4218 233.839 39.162 234.15 38.97C234.49 38.7859 234.873 38.6962 235.26 38.71C235.711 38.7093 236.153 38.8414 236.53 39.09C236.93 39.34 237.39 39.61 237.92 39.91C238.514 40.231 239.133 40.5051 239.77 40.73C240.646 41.005 241.562 41.1334 242.48 41.11C243.228 41.1225 243.974 41.0179 244.69 40.8C245.243 40.6268 245.758 40.3521 246.21 39.99C246.593 39.6843 246.895 39.2894 247.09 38.84C247.269 38.4088 247.36 37.9467 247.36 37.48C247.383 36.8452 247.161 36.226 246.74 35.75C246.236 35.2553 245.646 34.8556 245 34.57C244.233 34.2144 243.441 33.9169 242.63 33.68C241.74 33.42 240.84 33.13 239.91 32.82C238.982 32.5079 238.074 32.1406 237.19 31.72C236.323 31.3154 235.523 30.779 234.82 30.13C234.108 29.4616 233.54 28.6552 233.15 27.76C232.708 26.686 232.497 25.531 232.53 24.37C232.524 23.1617 232.772 21.9656 233.26 20.86C233.758 19.7577 234.496 18.7805 235.42 18C236.472 17.1075 237.688 16.4282 239 16C240.579 15.4746 242.236 15.221 243.9 15.25C245.83 15.2136 247.749 15.5533 249.55 16.25C251.127 16.8574 252.568 17.7718 253.79 18.94L252.1 21.53Z" fill="white"/>
</svg>
